<svg xmlns="http://www.w3.org/2000/svg" xmlns:xlink="http://www.w3.org/1999/xlink" width="500" zoomAndPan="magnify" viewBox="0 0 375 374.999991" height="500" preserveAspectRatio="xMidYMid meet" version="1.0"><defs><clipPath id="915e02b1fb"><path d="M 100 21 L 352 21 L 352 191 L 100 191 Z M 100 21 " clip-rule="nonzero"/></clipPath><clipPath id="16b8e3ed28"><path d="M 332.386719 190.96875 L 309.046875 164.355469 C 309.046875 164.355469 318.164062 132.984375 322.222656 105.324219 C 324.882812 87.089844 321.480469 73.914062 305.425781 61.128906 C 299.054688 56.066406 290.023438 54.019531 280.425781 54.019531 C 265.851562 54.019531 249.886719 58.6875 239.761719 64.402344 C 222.964844 73.867188 100.761719 135.167969 100.761719 135.167969 C 100.761719 135.167969 195.960938 54.542969 230.644531 35.214844 C 246.960938 26.09375 262.972656 21.949219 277.894531 21.820312 L 279.074219 21.820312 C 295.347656 21.949219 310.3125 26.925781 322.917969 35.5625 C 347.351562 52.359375 356.46875 85.519531 348.835938 122.382812 C 341.199219 159.25 332.429688 190.96875 332.429688 190.96875 Z M 332.386719 190.96875 " clip-rule="nonzero"/></clipPath><clipPath id="4138dbcb6c"><path d="M 23 24 L 193 24 L 193 275 L 23 275 Z M 23 24 " clip-rule="nonzero"/></clipPath><clipPath id="46fe57c999"><path d="M 136.886719 274.910156 C 136.886719 274.910156 56.261719 179.710938 36.933594 145.027344 C 27.726562 128.535156 23.582031 112.394531 23.539062 97.339844 L 23.539062 97.078125 C 23.582031 80.632812 28.554688 65.492188 37.28125 52.753906 C 50.195312 33.949219 72.839844 24.21875 99.367188 24.21875 L 124.101562 26.878906 C 160.96875 34.515625 192.6875 43.285156 192.6875 43.285156 L 166.074219 66.625 C 166.074219 66.625 134.703125 57.507812 107.042969 53.449219 L 96.792969 52.621094 C 83.617188 52.621094 73.101562 57.378906 62.890625 70.246094 C 50.109375 86.304688 56.695312 119.113281 66.164062 135.910156 C 75.632812 152.707031 136.886719 274.910156 136.886719 274.910156 Z M 136.886719 274.910156 " clip-rule="nonzero"/></clipPath><clipPath id="4733cd2f4c"><path d="M 23 184 L 275 184 L 275 354 L 23 354 Z M 23 184 " clip-rule="nonzero"/></clipPath><clipPath id="2130b22c2c"><path d="M 96.222656 353.179688 C 79.820312 353.136719 64.769531 348.164062 52.070312 339.4375 C 27.640625 322.640625 18.523438 289.4375 26.199219 252.617188 C 33.878906 215.792969 42.605469 184.03125 42.605469 184.03125 L 65.945312 210.644531 C 65.945312 210.644531 56.828125 242.015625 52.769531 269.675781 C 50.109375 287.910156 53.511719 301.085938 69.566406 313.871094 C 75.9375 318.933594 84.96875 320.980469 94.566406 320.980469 C 109.136719 320.980469 125.105469 316.3125 135.230469 310.597656 C 152.027344 301.132812 274.1875 239.832031 274.1875 239.832031 C 274.1875 239.832031 179.03125 320.457031 144.390625 339.785156 C 127.941406 348.949219 111.84375 353.136719 96.878906 353.179688 Z M 96.222656 353.179688 " clip-rule="nonzero"/></clipPath><clipPath id="fbfa448025"><path d="M 182 100 L 352 100 L 352 351 L 182 351 Z M 182 100 " clip-rule="nonzero"/></clipPath><clipPath id="5d72ba3e53"><path d="M 275.625 350.78125 L 250.886719 348.121094 C 214.066406 340.484375 182.304688 331.714844 182.304688 331.714844 L 208.917969 308.375 C 208.917969 308.375 240.285156 317.492188 267.949219 321.550781 L 278.199219 322.378906 C 291.375 322.378906 301.890625 317.621094 312.101562 304.753906 C 324.882812 288.695312 318.296875 255.886719 308.828125 239.089844 C 299.359375 222.292969 238.105469 100.089844 238.105469 100.089844 C 238.105469 100.089844 318.730469 195.289062 338.058594 229.972656 C 347.222656 246.421875 351.410156 262.519531 351.453125 277.484375 L 351.453125 278.09375 C 351.410156 294.5 346.4375 309.550781 337.710938 322.246094 C 324.796875 341.050781 302.152344 350.78125 275.625 350.78125 Z M 275.625 350.78125 " clip-rule="nonzero"/></clipPath><clipPath id="bae60f69ef"><path d="M 160 160 L 209 160 L 209 209 L 160 209 Z M 160 160 " clip-rule="nonzero"/></clipPath><clipPath id="27647ffdbb"><path d="M 184.441406 208.027344 L 180.863281 207.851562 C 170.304688 205.496094 163.238281 198.472656 161.320312 189.746094 C 157.871094 174.257812 169.566406 160.558594 184.441406 160.558594 L 186.230469 160.558594 L 189.894531 161.171875 C 198.621094 163.089844 205.644531 170.15625 207.609375 178.882812 C 211.054688 194.371094 199.363281 208.027344 184.484375 208.027344 Z M 184.441406 208.027344 " clip-rule="nonzero"/></clipPath><clipPath id="948e45ece5"><path d="M 153.882812 153.882812 L 215.625 153.882812 L 215.625 215.625 L 153.882812 215.625 Z M 153.882812 153.882812 " clip-rule="nonzero"/></clipPath><clipPath id="64df6401ba"><path d="M 184.753906 153.882812 C 167.703125 153.882812 153.882812 167.703125 153.882812 184.753906 C 153.882812 201.804688 167.703125 215.625 184.753906 215.625 C 201.804688 215.625 215.625 201.804688 215.625 184.753906 C 215.625 167.703125 201.804688 153.882812 184.753906 153.882812 Z M 184.753906 153.882812 " clip-rule="nonzero"/></clipPath><clipPath id="fb73cd80a6"><path d="M 139 146 L 247.25 146 L 247.25 229.410156 L 139 229.410156 Z M 139 146 " clip-rule="nonzero"/></clipPath></defs><rect x="-37.5" width="450" fill="#ffffff" y="-37.499999" height="449.999989" fill-opacity="1"/><rect x="-37.5" width="450" fill="#ffffff" y="-37.499999" height="449.999989" fill-opacity="1"/><g clip-path="url(#915e02b1fb)"><g clip-path="url(#16b8e3ed28)"><path fill="#000000" d="M 100.761719 21.820312 L 100.761719 190.96875 L 356.46875 190.96875 L 356.46875 21.820312 Z M 100.761719 21.820312 " fill-opacity="1" fill-rule="nonzero"/></g></g><g clip-path="url(#4138dbcb6c)"><g clip-path="url(#46fe57c999)"><path fill="#000000" d="M 23.539062 24.21875 L 23.539062 274.910156 L 192.6875 274.910156 L 192.6875 24.21875 Z M 23.539062 24.21875 " fill-opacity="1" fill-rule="nonzero"/></g></g><g clip-path="url(#4733cd2f4c)"><g clip-path="url(#2130b22c2c)"><path fill="#000000" d="M 53.230469 440.753906 L 332.125 330.21875 L 239.480469 96.460938 L -39.417969 206.996094 Z M 53.230469 440.753906 " fill-opacity="1" fill-rule="nonzero"/></g></g><g clip-path="url(#fbfa448025)"><g clip-path="url(#5d72ba3e53)"><path fill="#000000" d="M 440.054688 136.773438 L 207.054688 40.308594 L 93.703125 314.097656 L 326.703125 410.5625 Z M 440.054688 136.773438 " fill-opacity="1" fill-rule="nonzero"/></g></g><g clip-path="url(#bae60f69ef)"><g clip-path="url(#27647ffdbb)"><path fill="#000000" d="M 157.871094 160.558594 L 157.871094 208.027344 L 211.054688 208.027344 L 211.054688 160.558594 Z M 157.871094 160.558594 " fill-opacity="1" fill-rule="nonzero"/></g></g><g clip-path="url(#948e45ece5)"><g clip-path="url(#64df6401ba)"><path fill="#ffffff" d="M 153.882812 153.882812 L 215.625 153.882812 L 215.625 215.625 L 153.882812 215.625 Z M 153.882812 153.882812 " fill-opacity="1" fill-rule="nonzero"/></g></g><g clip-path="url(#fb73cd80a6)"><path fill="#38b6ff" d="M 187.441406 163.65625 C 188.503906 161.582031 189.25 159.929688 190.164062 158.375 C 193.722656 152.320312 198.554688 147.796875 205.71875 146.628906 C 211.558594 145.675781 217.210938 146.664062 222.476562 149.453125 C 229.425781 153.132812 233.425781 159.054688 235.003906 166.621094 C 236.265625 172.652344 235.578125 178.609375 233.644531 184.429688 C 233.425781 185.082031 233.132812 185.714844 232.835938 186.453125 C 224.328125 186.453125 215.875 186.453125 207.117188 186.453125 C 206.515625 185.332031 205.796875 184.058594 205.132812 182.757812 C 204.171875 180.898438 203.214844 179.035156 202.320312 177.140625 C 201.554688 175.53125 200.5 174.246094 198.589844 174.367188 C 196.730469 174.488281 195.757812 175.746094 195.136719 177.476562 C 193.425781 182.238281 191.59375 186.957031 189.804688 191.691406 C 189.652344 192.09375 189.472656 192.488281 189.164062 193.21875 C 188.796875 192.511719 188.484375 192.066406 188.320312 191.570312 C 186.167969 185.117188 184.035156 178.65625 181.898438 172.195312 C 181.761719 171.78125 181.664062 171.355469 181.503906 170.949219 C 180.902344 169.453125 179.867188 168.417969 178.195312 168.402344 C 176.5625 168.390625 175.402344 169.246094 174.78125 170.789062 C 173.214844 174.671875 171.644531 178.554688 170.066406 182.4375 C 169.542969 183.726562 168.988281 185.003906 168.320312 186.578125 C 167.335938 186.578125 166.308594 186.578125 165.285156 186.578125 C 162.75 186.585938 160.214844 186.519531 157.6875 186.625 C 155.667969 186.707031 154.410156 188.078125 154.363281 189.960938 C 154.316406 191.742188 155.421875 193.140625 157.214844 193.503906 C 157.722656 193.609375 158.257812 193.59375 158.78125 193.597656 C 162.535156 193.601562 166.292969 193.546875 170.046875 193.617188 C 172.28125 193.660156 173.640625 192.683594 174.421875 190.628906 C 175.410156 188.027344 176.503906 185.464844 177.75 182.398438 C 178.292969 183.945312 178.699219 185.035156 179.0625 186.136719 C 181.144531 192.429688 183.222656 198.726562 185.289062 205.027344 C 185.820312 206.640625 186.675781 207.832031 188.546875 207.933594 C 190.382812 208.039062 191.515625 207.324219 192.289062 205.324219 C 193.730469 201.582031 195.109375 197.8125 196.515625 194.050781 C 197.367188 191.769531 198.226562 189.488281 199.226562 186.820312 C 199.929688 188.195312 200.566406 189.199219 200.980469 190.292969 C 201.910156 192.765625 203.605469 193.660156 206.238281 193.640625 C 218.203125 193.546875 230.171875 193.597656 242.136719 193.601562 C 243.011719 193.601562 243.894531 193.550781 244.753906 193.664062 C 246.101562 193.84375 247.050781 194.917969 247.058594 196.117188 C 247.066406 197.300781 246.132812 198.394531 244.796875 198.621094 C 244.113281 198.738281 243.402344 198.6875 242.707031 198.6875 C 237.726562 198.695312 232.75 198.714844 227.769531 198.683594 C 226.652344 198.675781 225.832031 198.929688 225.082031 199.886719 C 217.171875 209.992188 207.242188 217.777344 196.460938 224.550781 C 194.023438 226.082031 191.480469 227.449219 189.007812 228.921875 C 188.027344 229.503906 187.136719 229.585938 186.085938 229 C 172.796875 221.59375 160.519531 212.902344 150.78125 201.03125 C 145.683594 194.8125 141.746094 187.957031 140.121094 179.984375 C 138.53125 172.191406 139.167969 164.628906 143.492188 157.769531 C 147.890625 150.785156 154.550781 147.3125 162.628906 146.460938 C 172.644531 145.40625 179.769531 149.886719 184.773438 158.277344 C 185.261719 159.101562 185.675781 159.976562 186.101562 160.832031 C 186.484375 161.601562 186.84375 162.386719 187.441406 163.65625 Z M 187.441406 163.65625 " fill-opacity="1" fill-rule="nonzero"/></g></svg>